:FULLY-SPECIFIED
:FORCE-ALL-JOINTS-BE-3DOF
:DEGREES
306
root 9.13628 15.4598 -23.7347 20.756 61.3254 24.6237
lfemur -15.3793 16.5052 -18.5632
ltibia 51.0481 0 0
lfoot -17.969 -25.0729 0
ltoes 57.1161 0 0
rfemur -51.1304 -12.9454 27.4515
rtibia 56.3045 0 0
rfoot 2.62379 -3.79764 0
rtoes 14.2757 0 0
lowerback 8.4944 -3.1184 -6.91595
upperback 4.60053 -4.50429 -4.06983
thorax 0.280301 -2.26037 -0.0534355
lowerneck -3.82309 -11.6005 -2.67236
upperneck -1.54823 -15.4071 9.5408
head 1.24386 -7.6799 3.056
lclavicle -5.95928e-14 -2.57474e-15 0
lhumerus -44.6852 -45.8264 103.86
lradius 59.7463 0 0
lwrist 19.0741 0 0
lhand 17.6694 12.7092 0
lfingers 7.12502 0 0
lthumb 42.3501 37.1151 0
rclavicle -5.95928e-14 -2.57474e-15 0
rhumerus -37.7743 29.1298 -79.4964
rradius 73.651 0 0
rwrist -2.01649 0 0
rhand -14.0031 -14.1683 0
rfingers 7.12502 0 0
rthumb 12.1069 -763.435 0
307
root 9.09677 15.4778 -23.7053 19.7759 60.0075 23.2897
lfemur -15.4578 16.9764 -18.398
ltibia 50.6644 0 0
lfoot -18.3328 -24.3302 0
ltoes 57.0896 0 0
rfemur -52.1568 -13.6836 27.615
rtibia 56.774 0 0
rfoot 2.90191 -2.46182 0
rtoes 11.2534 0 0
lowerback 8.63464 -2.95775 -6.84701
upperback 4.61642 -4.30063 -4.07704
thorax 0.202717 -2.15632 -0.103648
lowerneck -3.9246 -11.5473 -2.32316
upperneck -1.98686 -15.3148 9.62643
head 1.08941 -7.64241 3.04026
lclavicle -5.64762e-14 -2.55581e-15 0
lhumerus -45.0488 -46.3954 104.137
lradius 59.6651 0 0
lwrist 19.0227 0 0
lhand 17.3963 12.4311 0
lfingers 7.12502 0 0
lthumb 42.0944 36.9252 0
rclavicle -5.64762e-14 -2.55581e-15 0
rhumerus -34.5146 28.7674 -77.0696
rradius 73.4123 0 0
rwrist -3.75826 0 0
rhand -12.8483 -14.4653 0
rfingers 7.12502 0 0
rthumb 13.2198 -763.667 0
308
root 9.05727 15.4958 -23.676 18.7958 58.6895 21.9556
lfemur -15.5363 17.4476 -18.2328
ltibia 50.2807 0 0
lfoot -18.6966 -23.5874 0
ltoes 57.0632 0 0
rfemur -53.1832 -14.4218 27.7786
rtibia 57.2435 0 0
rfoot 3.18004 -1.126 0
rtoes 8.23105 0 0
lowerback 8.77489 -2.79709 -6.77807
upperback 4.63232 -4.09697 -4.08425
thorax 0.125134 -2.05227 -0.153861
lowerneck -4.02611 -11.4941 -1.97395
upperneck -2.4255 -15.2226 9.71206
head 0.934961 -7.60492 3.02452
lclavicle -5.33595e-14 -2.53688e-15 0
lhumerus -45.4125 -46.9644 104.414
lradius 59.5838 0 0
lwrist 18.9713 0 0
lhand 17.1232 12.153 0
lfingers 7.12502 0 0
lthumb 41.8388 36.7353 0
rclavicle -5.33595e-14 -2.53688e-15 0
rhumerus -31.2549 28.405 -74.6428
rradius 73.1737 0 0
rwrist -5.50003 0 0
rhand -11.6936 -14.7622 0
rfingers 7.12502 0 0
rthumb 14.3328 -763.899 0
309
root 9.01776 15.5138 -23.6466 17.8157 57.3716 20.6216
lfemur -15.6148 17.9188 -18.0677
ltibia 49.897 0 0
lfoot -19.0603 -22.8447 0
ltoes 57.0367 0 0
rfemur -54.2096 -15.16 27.9421
rtibia 57.713 0 0
rfoot 3.45817 0.209827 0
rtoes 5.20873 0 0
lowerback 8.91514 -2.63644 -6.70913
upperback 4.64821 -3.89331 -4.09146
thorax 0.04755 -1.94822 -0.204074
lowerneck -4.12762 -11.4409 -1.62474
upperneck -2.86413 -15.1303 9.79769
head 0.780513 -7.56743 3.00878
lclavicle -5.02428e-14 -2.51794e-15 0
lhumerus -45.7761 -47.5334 104.691
lradius 59.5026 0 0
lwrist 18.9198 0 0
lhand 16.8501 11.8749 0
lfingers 7.12502 0 0
lthumb 41.5831 36.5454 0
rclavicle -5.02428e-14 -2.51794e-15 0
rhumerus -27.9952 28.0427 -72.216
rradius 72.9351 0 0
rwrist -7.2418 0 0
rhand -10.5388 -15.0592 0
rfingers 7.12502 0 0
rthumb 15.4458 -764.131 0
310
root 8.97825 15.5319 -23.6172 16.8356 56.0537 19.2875
lfemur -15.6933 18.39 -17.9025
ltibia 49.5133 0 0
lfoot -19.4241 -22.102 0
ltoes 57.0102 0 0
rfemur -55.2361 -15.8982 28.1056
rtibia 58.1825 0 0
rfoot 3.73629 1.54565 0
rtoes 2.18641 0 0
lowerback 9.05538 -2.47578 -6.64019
upperback 4.6641 -3.68965 -4.09866
thorax -0.0300336 -1.84417 -0.254287
lowerneck -4.22914 -11.3877 -1.27554
upperneck -3.30277 -15.038 9.88332
head 0.626066 -7.52994 2.99304
lclavicle -4.71262e-14 -2.49901e-15 0
lhumerus -46.1398 -48.1023 104.968
lradius 59.4213 0 0
lwrist 18.8684 0 0
lhand 16.5769 11.5968 0
lfingers 7.12502 0 0
lthumb 41.3274 36.3555 0
rclavicle -4.71262e-14 -2.49901e-15 0
rhumerus -24.7355 27.6803 -69.7892
rradius 72.6964 0 0
rwrist -8.98357 0 0
rhand -9.384 -15.3561 0
rfingers 7.12502 0 0
rthumb 16.5588 -764.363 0
311
root 8.93875 15.5499 -23.5879 15.8554 54.7357 17.9535
lfemur -15.7718 18.8612 -17.7373
ltibia 49.1295 0 0
lfoot -19.7879 -21.3592 0
ltoes 56.9838 0 0
rfemur -56.2625 -16.6364 28.2692
rtibia 58.652 0 0
rfoot 4.01442 2.88147 0
rtoes -0.835905 0 0
lowerback 9.19563 -2.31513 -6.57125
upperback 4.68 -3.48599 -4.10587
thorax -0.107617 -1.74011 -0.3045
lowerneck -4.33065 -11.3345 -0.926332
upperneck -3.7414 -14.9458 9.96895
head 0.471618 -7.49246 2.9773
lclavicle -4.40095e-14 -2.48008e-15 0
lhumerus -46.5034 -48.6713 105.245
lradius 59.3401 0 0
lwrist 18.817 0 0
lhand 16.3038 11.3187 0
lfingers 7.12502 0 0
lthumb 41.0718 36.1656 0
rclavicle -4.40095e-14 -2.48008e-15 0
rhumerus -21.4757 27.3179 -67.3624
rradius 72.4578 0 0
rwrist -10.7253 0 0
rhand -8.22922 -15.6531 0
rfingers 7.12502 0 0
rthumb 17.6717 -764.596 0
312
root 8.89924 15.5679 -23.5585 14.8753 53.4178 16.6194
lfemur -15.8503 19.3324 -17.5722
ltibia 48.7458 0 0
lfoot -20.1517 -20.6165 0
ltoes 56.9573 0 0
rfemur -57.2889 -17.3746 28.4327
rtibia 59.1215 0 0
rfoot 4.29255 4.2173 0
rtoes -3.85822 0 0
lowerback 9.33588 -2.15447 -6.50231
upperback 4.69589 -3.28233 -4.11308
thorax -0.185201 -1.63606 -0.354713
lowerneck -4.43216 -11.2813 -0.577126
upperneck -4.18004 -14.8535 10.0546
head 0.31717 -7.45497 2.96156
lclavicle -4.08928e-14 -2.46115e-15 0
lhumerus -46.8671 -49.2403 105.522
lradius 59.2588 0 0
lwrist 18.7656 0 0
lhand 16.0307 11.0405 0
lfingers 7.12502 0 0
lthumb 40.8161 35.9757 0
rclavicle -4.08928e-14 -2.46115e-15 0
rhumerus -18.216 26.9556 -64.9356
rradius 72.2192 0 0
rwrist -12.4671 0 0
rhand -7.07444 -15.95 0
rfingers 7.12502 0 0
rthumb 18.7847 -764.828 0
313
root 8.85973 15.5859 -23.5291 13.8952 52.0998 15.2854
lfemur -15.9289 19.8037 -17.407
ltibia 48.3621 0 0
lfoot -20.5155 -19.8738 0
ltoes 56.9308 0 0
rfemur -58.3153 -18.1127 28.5963
rtibia 59.5911 0 0
rfoot 4.57067 5.55312 0
rtoes -6.88054 0 0
lowerback 9.47612 -1.99382 -6.43338
upperback 4.71179 -3.07867 -4.12029
thorax -0.262784 -1.53201 -0.404926
lowerneck -4.53367 -11.228 -0.227919
upperneck -4.61867 -14.7613 10.1402
head 0.162723 -7.41748 2.94582
lclavicle -3.77762e-14 -2.44222e-15 0
lhumerus -47.2307 -49.8093 105.8
lradius 59.1776 0 0
lwrist 18.7142 0 0
lhand 15.7576 10.7624 0
lfingers 7.12502 0 0
lthumb 40.5605 35.7858 0
rclavicle -3.77762e-14 -2.44222e-15 0
rhumerus -14.9563 26.5932 -62.5089
rradius 71.9805 0 0
rwrist -14.2089 0 0
rhand -5.91966 -16.247 0
rfingers 7.12502 0 0
rthumb 19.8977 -765.06 0
314
root 8.82022 15.604 -23.4997 12.9151 50.7819 13.9513
lfemur -16.0074 20.2749 -17.2418
ltibia 47.9784 0 0
lfoot -20.8792 -19.1311 0
ltoes 56.9043 0 0
rfemur -59.3418 -18.8509 28.7598
rtibia 60.0606 0 0
rfoot 4.8488 6.88894 0
rtoes -9.90286 0 0
lowerback 9.61637 -1.83316 -6.36444
upperback 4.72768 -2.87501 -4.12749
thorax -0.340368 -1.42796 -0.455139
lowerneck -4.63519 -11.1748 0.121287
upperneck -5.05731 -14.669 10.2258
head 0.00827524 -7.37999 2.93008
lclavicle -3.46595e-14 -2.42328e-15 0
lhumerus -47.5944 -50.3782 106.077
lradius 59.0963 0 0
lwrist 18.6627 0 0
lhand 15.4844 10.4843 0
lfingers 7.12502 0 0
lthumb 40.3048 35.5959 0
rclavicle -3.46595e-14 -2.42328e-15 0
rhumerus -11.6966 26.2308 -60.0821
rradius 71.7419 0 0
rwrist -15.9507 0 0
rhand -4.76488 -16.5439 0
rfingers 7.12502 0 0
rthumb 21.0107 -765.292 0
